# xmcd
#
# Track frame offsets: 
#        150
#        1983
#        17173
#        32948
#        48666
#        61122
#        77456
#        87986
#        106095
#        114704
#        130114
#        141668
#        153008
#        169327
#        180401
#        191836
#        206043
#        218275
#        226348
#        242096
#        258500
#        267991
#        277810
#        292975
#        307398
#        319991
#        335371
#        346549
#        349227
#
# Disc length: 4833 seconds
#
# Revision: 3
# Processed by: cddbd v1.5.2PL0 Copyright (c) Steve Scherf et al.
# Submitted via: ExactAudioCopyFreeDBPlugin 1.0
#
DISCID=a312df1d
DTITLE=Various Artist - 2001 Country CD 2
DYEAR=1900
DGENRE=Country
TTITLE0=01 Authentic Steam Engine
TTITLE1=02 Macarrena (The Groove Grass Boys)
TTITLE2=03 Old Pop In An Oak (Rednex)
TTITLE3=04 Blue And Worried Man (Killbilly)
TTITLE4=05 Get Rhythm (Johnny Cach and Martin Delray)
TTITLE5=06 Jambalaya (No The Bayou) (Carpenters)
TTITLE6=07 Against The Grain (Garth Brooks)
TTITLE7=08 Redneck Rampage (R and R)
TTITLE8=09 Hilly Billy Willy (Dolly Parton)
TTITLE9=10 Riding Alone (Rednex)
TTITLE10=11 Mountain Music (Alabama)
TTITLE11=12 Expo Seven-O (The Ventures)
TTITLE12=13 Wild And Free (Rednex)
TTITLE13=14 If You Need Me (Dolly Parton)
TTITLE14=15 Ode To 10-33 (S. Bouno)
TTITLE15=16 Girls With Guitars (Wynonna)
TTITLE16=17 Talking To Hank (Mark Chesnutt and George Jones)
TTITLE17=18 Tip-Toe Thru' The Tulips With Me (Tiny Tim)
TTITLE18=19 Bigger Fish To Fry (Boy Howdy)
TTITLE19=20 Lady (Kenny Rogers)
TTITLE20=21 Darling Girl (Killbilly)
TTITLE21=22 Hello Mary Lou (Creedence Clearwater Revival)
TTITLE22=23 Achy Breaky Heart (Billy Ray Cyrus)
TTITLE23=24 Every Little Thing (Carlene Carter)
TTITLE24=25 Maggie Won't You Go (Killbilly)
TTITLE25=26 Crash Bam Boom (T. Cane Honey)
TTITLE26=27 Big River (Johnny Cach)
TTITLE27=28 Stampede
TTITLE28=29 The Good, The Bad And The Ugly (Ennio Morricone)
EXTD=
EXTT0=
EXTT1=
EXTT2=
EXTT3=
EXTT4=
EXTT5=
EXTT6=
EXTT7=
EXTT8=
EXTT9=
EXTT10=
EXTT11=
EXTT12=
EXTT13=
EXTT14=
EXTT15=
EXTT16=
EXTT17=
EXTT18=
EXTT19=
EXTT20=
EXTT21=
EXTT22=
EXTT23=
EXTT24=
EXTT25=
EXTT26=
EXTT27=
EXTT28=
PLAYORDER=
